<?xml version="1.0" encoding="UTF-8" standalone="no"?>
<!DOCTYPE svg PUBLIC "-//W3C//DTD SVG 1.0//EN" "http://www.w3.org/TR/2001/PR-SVG-20010719/DTD/svg10.dtd">
<svg width="32cm" height="13cm" viewBox="340 -1 640 260" xmlns="http://www.w3.org/2000/svg" xmlns:xlink="http://www.w3.org/1999/xlink">
  <g id="Background">
    <g>
      <rect style="fill: #222222; fill-opacity: 0; stroke-opacity: 1; stroke-width: 2.35099e-37; stroke: #222222" x="340" y="0" width="640" height="260" rx="0" ry="0"/>
      <text font-size="11.2889" style="fill: #222222; fill-opacity: 1; stroke: none;text-anchor:middle;font-family:sans-serif;font-style:normal;font-weight:700" x="660" y="133.444">
        <tspan x="660" y="133.444"></tspan>
      </text>
    </g>
    <g>
      <rect style="fill: #222222; fill-opacity: 0; stroke-opacity: 1; stroke-width: 2; stroke: #222222" x="380" y="40" width="160" height="38" rx="0" ry="0"/>
      <text font-size="11.2889" style="fill: #222222; fill-opacity: 1; stroke: none;text-anchor:middle;font-family:sans-serif;font-style:normal;font-weight:700" x="460" y="62.4444">
        <tspan x="460" y="62.4444">Main</tspan>
      </text>
    </g>
    <g>
      <rect style="fill: #222222; fill-opacity: 0; stroke-opacity: 1; stroke-width: 2; stroke: #222222" x="380" y="120" width="160" height="38" rx="0" ry="0"/>
      <text font-size="11.2889" style="fill: #222222; fill-opacity: 1; stroke: none;text-anchor:middle;font-family:sans-serif;font-style:normal;font-weight:700" x="460" y="142.444">
        <tspan x="460" y="142.444">Window</tspan>
      </text>
    </g>
    <g>
      <rect style="fill: #222222; fill-opacity: 0; stroke-opacity: 1; stroke-width: 2; stroke: #222222" x="580" y="120" width="160" height="38" rx="0" ry="0"/>
      <text font-size="11.2889" style="fill: #222222; fill-opacity: 1; stroke: none;text-anchor:middle;font-family:sans-serif;font-style:normal;font-weight:700" x="660" y="142.444">
        <tspan x="660" y="142.444">Viewport</tspan>
      </text>
    </g>
    <g>
      <rect style="fill: #222222; fill-opacity: 0; stroke-opacity: 1; stroke-width: 2; stroke: #222222" x="580" y="40" width="160" height="38" rx="0" ry="0"/>
      <text font-size="11.2889" style="fill: #222222; fill-opacity: 1; stroke: none;text-anchor:middle;font-family:sans-serif;font-style:normal;font-weight:700" x="660" y="62.4444">
        <tspan x="660" y="62.4444">Property Editors</tspan>
      </text>
    </g>
    <g>
      <rect style="fill: #222222; fill-opacity: 0; stroke-opacity: 1; stroke-width: 2; stroke: #222222" x="580" y="200" width="160" height="38" rx="0" ry="0"/>
      <text font-size="11.2889" style="fill: #222222; fill-opacity: 1; stroke: none;text-anchor:middle;font-family:sans-serif;font-style:normal;font-weight:700" x="660" y="222.444">
        <tspan x="660" y="222.444">Structure Generator</tspan>
      </text>
    </g>
    <g>
      <rect style="fill: #222222; fill-opacity: 0; stroke-opacity: 1; stroke-width: 2; stroke: #222222" x="780" y="120" width="160" height="38" rx="0" ry="0"/>
      <text font-size="11.2889" style="fill: #222222; fill-opacity: 1; stroke: none;text-anchor:middle;font-family:sans-serif;font-style:normal;font-weight:700" x="860" y="142.444">
        <tspan x="860" y="142.444">Mesh Generator</tspan>
      </text>
    </g>
    <g>
      <line style="fill: none; stroke-opacity: 1; stroke-width: 2; stroke: #222222" x1="460" y1="78" x2="460" y2="109"/>
      <polygon style="fill: #222222; fill-opacity: 1; stroke-opacity: 1; stroke-width: 2; stroke: #222222" fill-rule="evenodd" points="455,109 460,119 465,109 "/>
    </g>
    <g>
      <line style="fill: none; stroke-opacity: 1; stroke-width: 2; stroke: #222222" x1="540.991" y1="139" x2="569" y2="139"/>
      <polygon style="fill: #222222; fill-opacity: 1; stroke-opacity: 1; stroke-width: 2; stroke: #222222" fill-rule="evenodd" points="569,144 579,139 569,134 "/>
    </g>
    <g>
      <line style="fill: none; stroke-opacity: 1; stroke-width: 2; stroke: #222222" x1="660" y1="78.5391" x2="660" y2="109"/>
      <polygon style="fill: #222222; fill-opacity: 1; stroke-opacity: 1; stroke-width: 2; stroke: #222222" fill-rule="evenodd" points="655,109 660,119 665,109 "/>
    </g>
    <g>
      <line style="fill: none; stroke-opacity: 1; stroke-width: 2; stroke: #222222" x1="660" y1="158" x2="660" y2="189"/>
      <polygon style="fill: #222222; fill-opacity: 1; stroke-opacity: 1; stroke-width: 2; stroke: #222222" fill-rule="evenodd" points="655,189 660,199 665,189 "/>
    </g>
    <g>
      <line style="fill: none; stroke-opacity: 1; stroke-width: 2; stroke: #222222" x1="780" y1="139" x2="751" y2="139"/>
      <polygon style="fill: #222222; fill-opacity: 1; stroke-opacity: 1; stroke-width: 2; stroke: #222222" fill-rule="evenodd" points="751,134 741,139 751,144 "/>
    </g>
    <g>
      <polyline style="fill: none; stroke-opacity: 1; stroke-width: 2; stroke: #222222" points="740,219 860,219 860,169 "/>
      <polygon style="fill: #222222; fill-opacity: 1; stroke-opacity: 1; stroke-width: 2; stroke: #222222" fill-rule="evenodd" points="865,169 860,159 855,169 "/>
    </g>
  </g>
</svg>
